<svg xmlns="http://www.w3.org/2000/svg" width="1600" height="795" viewBox="0 100 1600 795" role="img" aria-label="One graph showing the four structural assumptions of graph networks" font-family="Calibri, Carlito, Helvetica Neue, Arial, sans-serif"><defs>
<marker id="ab" viewBox="0 0 10 10" refX="5" refY="5" markerWidth="4.2" markerHeight="4.2" orient="auto"><path d="M0,0 L10,5 L0,10 z" fill="#2563eb"/></marker>
<marker id="ao" viewBox="0 0 10 10" refX="5" refY="5" markerWidth="4.6" markerHeight="4.6" orient="auto"><path d="M0,0 L10,5 L0,10 z" fill="#ea580c"/></marker>
<marker id="ak" viewBox="0 0 10 10" refX="5" refY="5" markerWidth="4.6" markerHeight="4.6" orient="auto"><path d="M0,0 L10,5 L0,10 z" fill="#1f2937"/></marker>
</defs><rect y="0" width="1600" height="900" fill="#fff"/><circle cx="165" cy="400" r="120" fill="#eef2f7" stroke="#9ca3af" stroke-width="1.5" stroke-dasharray="4 5"/><circle cx="129.3" cy="305.0" r="9" fill="#ccfbf1" stroke="#0d9488" stroke-width="2.2"/><circle cx="130.9" cy="303.9" r="3.4" fill="#0d9488" fill-opacity="0.85"/><circle cx="153.6" cy="302.4" r="9" fill="#ccfbf1" stroke="#0d9488" stroke-width="2.2"/><circle cx="155.2" cy="301.3" r="3.4" fill="#0d9488" fill-opacity="0.85"/><circle cx="175.5" cy="307.0" r="9" fill="#ccfbf1" stroke="#0d9488" stroke-width="2.2"/><circle cx="177.1" cy="305.9" r="3.4" fill="#0d9488" fill-opacity="0.85"/><circle cx="196.3" cy="305.8" r="9" fill="#ede9fe" stroke="#7c3aed" stroke-width="2.2"/><circle cx="197.9" cy="304.7" r="3.4" fill="#7c3aed" fill-opacity="0.85"/><circle cx="99.8" cy="323.2" r="9" fill="#ccfbf1" stroke="#0d9488" stroke-width="2.2"/><circle cx="101.4" cy="322.1" r="3.4" fill="#0d9488" fill-opacity="0.85"/><circle cx="118.4" cy="321.4" r="9" fill="#ccfbf1" stroke="#0d9488" stroke-width="2.2"/><circle cx="120.0" cy="320.3" r="3.4" fill="#0d9488" fill-opacity="0.85"/><circle cx="144.1" cy="323.6" r="9" fill="#ccfbf1" stroke="#0d9488" stroke-width="2.2"/><circle cx="145.7" cy="322.5" r="3.4" fill="#0d9488" fill-opacity="0.85"/><circle cx="165.5" cy="323.7" r="9" fill="#ccfbf1" stroke="#0d9488" stroke-width="2.2"/><circle cx="167.1" cy="322.6" r="3.4" fill="#0d9488" fill-opacity="0.85"/><circle cx="188.8" cy="325.2" r="9" fill="#ccfbf1" stroke="#0d9488" stroke-width="2.2"/><circle cx="190.4" cy="324.1" r="3.4" fill="#0d9488" fill-opacity="0.85"/><circle cx="209.4" cy="324.2" r="9" fill="#ede9fe" stroke="#7c3aed" stroke-width="2.2"/><circle cx="211.0" cy="323.1" r="3.4" fill="#7c3aed" fill-opacity="0.85"/><circle cx="232.4" cy="322.7" r="9" fill="#ffe4e6" stroke="#e11d48" stroke-width="2.2"/><circle cx="234.0" cy="321.6" r="3.4" fill="#e11d48" fill-opacity="0.85"/><circle cx="89.0" cy="344.6" r="9" fill="#ccfbf1" stroke="#0d9488" stroke-width="2.2"/><circle cx="90.6" cy="343.5" r="3.4" fill="#0d9488" fill-opacity="0.85"/><circle cx="112.3" cy="341.9" r="9" fill="#ccfbf1" stroke="#0d9488" stroke-width="2.2"/><circle cx="113.9" cy="340.8" r="3.4" fill="#0d9488" fill-opacity="0.85"/><circle cx="132.6" cy="343.5" r="9" fill="#ccfbf1" stroke="#0d9488" stroke-width="2.2"/><circle cx="134.2" cy="342.4" r="3.4" fill="#0d9488" fill-opacity="0.85"/><circle cx="156.0" cy="345.7" r="9" fill="#ccfbf1" stroke="#0d9488" stroke-width="2.2"/><circle cx="157.6" cy="344.6" r="3.4" fill="#0d9488" fill-opacity="0.85"/><circle cx="177.0" cy="340.4" r="9" fill="#ede9fe" stroke="#7c3aed" stroke-width="2.2"/><circle cx="178.6" cy="339.3" r="3.4" fill="#7c3aed" fill-opacity="0.85"/><circle cx="198.9" cy="346.0" r="9" fill="#ede9fe" stroke="#7c3aed" stroke-width="2.2"/><circle cx="200.5" cy="344.9" r="3.4" fill="#7c3aed" fill-opacity="0.85"/><circle cx="218.7" cy="342.3" r="9" fill="#ede9fe" stroke="#7c3aed" stroke-width="2.2"/><circle cx="220.3" cy="341.2" r="3.4" fill="#7c3aed" fill-opacity="0.85"/><circle cx="239.1" cy="342.8" r="9" fill="#ede9fe" stroke="#7c3aed" stroke-width="2.2"/><circle cx="240.7" cy="341.7" r="3.4" fill="#7c3aed" fill-opacity="0.85"/><circle cx="79.2" cy="359.5" r="9" fill="#ccfbf1" stroke="#0d9488" stroke-width="2.2"/><circle cx="80.8" cy="358.4" r="3.4" fill="#0d9488" fill-opacity="0.85"/><circle cx="99.3" cy="364.3" r="9" fill="#ccfbf1" stroke="#0d9488" stroke-width="2.2"/><circle cx="100.9" cy="363.2" r="3.4" fill="#0d9488" fill-opacity="0.85"/><circle cx="123.2" cy="360.7" r="9" fill="#ccfbf1" stroke="#0d9488" stroke-width="2.2"/><circle cx="124.8" cy="359.6" r="3.4" fill="#0d9488" fill-opacity="0.85"/><circle cx="142.2" cy="364.3" r="9" fill="#ede9fe" stroke="#7c3aed" stroke-width="2.2"/><circle cx="143.8" cy="363.2" r="3.4" fill="#7c3aed" fill-opacity="0.85"/><circle cx="162.9" cy="360.1" r="9" fill="#ccfbf1" stroke="#0d9488" stroke-width="2.2"/><circle cx="164.5" cy="359.0" r="3.4" fill="#0d9488" fill-opacity="0.85"/><circle cx="185.4" cy="361.9" r="9" fill="#ede9fe" stroke="#7c3aed" stroke-width="2.2"/><circle cx="187.0" cy="360.8" r="3.4" fill="#7c3aed" fill-opacity="0.85"/><circle cx="207.6" cy="359.0" r="9" fill="#ede9fe" stroke="#7c3aed" stroke-width="2.2"/><circle cx="209.2" cy="357.9" r="3.4" fill="#7c3aed" fill-opacity="0.85"/><circle cx="230.2" cy="362.4" r="9" fill="#ffe4e6" stroke="#e11d48" stroke-width="2.2"/><circle cx="231.8" cy="361.3" r="3.4" fill="#e11d48" fill-opacity="0.85"/><circle cx="254.1" cy="362.1" r="9" fill="#ffe4e6" stroke="#e11d48" stroke-width="2.2"/><circle cx="255.7" cy="361.0" r="3.4" fill="#e11d48" fill-opacity="0.85"/><circle cx="68.4" cy="382.7" r="9" fill="#ccfbf1" stroke="#0d9488" stroke-width="2.2"/><circle cx="70.0" cy="381.6" r="3.4" fill="#0d9488" fill-opacity="0.85"/><circle cx="89.8" cy="380.4" r="9" fill="#ccfbf1" stroke="#0d9488" stroke-width="2.2"/><circle cx="91.4" cy="379.3" r="3.4" fill="#0d9488" fill-opacity="0.85"/><circle cx="107.6" cy="381.8" r="9" fill="#ccfbf1" stroke="#0d9488" stroke-width="2.2"/><circle cx="109.2" cy="380.7" r="3.4" fill="#0d9488" fill-opacity="0.85"/><circle cx="129.4" cy="379.3" r="9" fill="#ccfbf1" stroke="#0d9488" stroke-width="2.2"/><circle cx="131.0" cy="378.2" r="3.4" fill="#0d9488" fill-opacity="0.85"/><circle cx="153.0" cy="378.3" r="9" fill="#ccfbf1" stroke="#0d9488" stroke-width="2.2"/><circle cx="154.6" cy="377.2" r="3.4" fill="#0d9488" fill-opacity="0.85"/><circle cx="173.9" cy="378.6" r="9" fill="#ede9fe" stroke="#7c3aed" stroke-width="2.2"/><circle cx="175.5" cy="377.5" r="3.4" fill="#7c3aed" fill-opacity="0.85"/><circle cx="195.2" cy="383.2" r="9" fill="#ede9fe" stroke="#7c3aed" stroke-width="2.2"/><circle cx="196.8" cy="382.1" r="3.4" fill="#7c3aed" fill-opacity="0.85"/><circle cx="217.9" cy="379.5" r="9" fill="#ede9fe" stroke="#7c3aed" stroke-width="2.2"/><circle cx="219.5" cy="378.4" r="3.4" fill="#7c3aed" fill-opacity="0.85"/><circle cx="241.2" cy="378.7" r="9" fill="#ffe4e6" stroke="#e11d48" stroke-width="2.2"/><circle cx="242.8" cy="377.6" r="3.4" fill="#e11d48" fill-opacity="0.85"/><circle cx="267.0" cy="380.8" r="9" fill="#ffe4e6" stroke="#e11d48" stroke-width="2.2"/><circle cx="268.6" cy="379.7" r="3.4" fill="#e11d48" fill-opacity="0.85"/><circle cx="79.0" cy="398.0" r="9" fill="#ccfbf1" stroke="#0d9488" stroke-width="2.2"/><circle cx="80.6" cy="396.9" r="3.4" fill="#0d9488" fill-opacity="0.85"/><circle cx="101.7" cy="400.2" r="9" fill="#ccfbf1" stroke="#0d9488" stroke-width="2.2"/><circle cx="103.3" cy="399.1" r="3.4" fill="#0d9488" fill-opacity="0.85"/><circle cx="121.3" cy="397.2" r="9" fill="#ccfbf1" stroke="#0d9488" stroke-width="2.2"/><circle cx="122.9" cy="396.1" r="3.4" fill="#0d9488" fill-opacity="0.85"/><circle cx="145.9" cy="402.2" r="9" fill="#ede9fe" stroke="#7c3aed" stroke-width="2.2"/><circle cx="147.5" cy="401.1" r="3.4" fill="#7c3aed" fill-opacity="0.85"/><circle cx="163.6" cy="399.2" r="9" fill="#ede9fe" stroke="#7c3aed" stroke-width="2.2"/><circle cx="165.2" cy="398.1" r="3.4" fill="#7c3aed" fill-opacity="0.85"/><circle cx="188.6" cy="400.2" r="9" fill="#ffe4e6" stroke="#e11d48" stroke-width="2.2"/><circle cx="190.2" cy="399.1" r="3.4" fill="#e11d48" fill-opacity="0.85"/><circle cx="208.0" cy="398.3" r="9" fill="#ffe4e6" stroke="#e11d48" stroke-width="2.2"/><circle cx="209.6" cy="397.2" r="3.4" fill="#e11d48" fill-opacity="0.85"/><circle cx="233.9" cy="402.1" r="9" fill="#ffe4e6" stroke="#e11d48" stroke-width="2.2"/><circle cx="235.5" cy="401.0" r="3.4" fill="#e11d48" fill-opacity="0.85"/><circle cx="254.9" cy="401.4" r="9" fill="#ffe4e6" stroke="#e11d48" stroke-width="2.2"/><circle cx="256.5" cy="400.3" r="3.4" fill="#e11d48" fill-opacity="0.85"/><circle cx="63.2" cy="416.2" r="9" fill="#ccfbf1" stroke="#0d9488" stroke-width="2.2"/><circle cx="64.8" cy="415.1" r="3.4" fill="#0d9488" fill-opacity="0.85"/><circle cx="86.6" cy="420.2" r="9" fill="#ccfbf1" stroke="#0d9488" stroke-width="2.2"/><circle cx="88.2" cy="419.1" r="3.4" fill="#0d9488" fill-opacity="0.85"/><circle cx="109.7" cy="421.6" r="9" fill="#ede9fe" stroke="#7c3aed" stroke-width="2.2"/><circle cx="111.3" cy="420.5" r="3.4" fill="#7c3aed" fill-opacity="0.85"/><circle cx="134.7" cy="418.2" r="9" fill="#ccfbf1" stroke="#0d9488" stroke-width="2.2"/><circle cx="136.3" cy="417.1" r="3.4" fill="#0d9488" fill-opacity="0.85"/><circle cx="152.4" cy="417.2" r="9" fill="#ede9fe" stroke="#7c3aed" stroke-width="2.2"/><circle cx="154.0" cy="416.1" r="3.4" fill="#7c3aed" fill-opacity="0.85"/><circle cx="176.7" cy="421.4" r="9" fill="#ffe4e6" stroke="#e11d48" stroke-width="2.2"/><circle cx="178.3" cy="420.3" r="3.4" fill="#e11d48" fill-opacity="0.85"/><circle cx="197.9" cy="419.9" r="9" fill="#ffe4e6" stroke="#e11d48" stroke-width="2.2"/><circle cx="199.5" cy="418.8" r="3.4" fill="#e11d48" fill-opacity="0.85"/><circle cx="217.5" cy="420.0" r="9" fill="#ffe4e6" stroke="#e11d48" stroke-width="2.2"/><circle cx="219.1" cy="418.9" r="3.4" fill="#e11d48" fill-opacity="0.85"/><circle cx="243.7" cy="420.5" r="9" fill="#ffe4e6" stroke="#e11d48" stroke-width="2.2"/><circle cx="245.3" cy="419.4" r="3.4" fill="#e11d48" fill-opacity="0.85"/><circle cx="262.1" cy="420.7" r="9" fill="#ffe4e6" stroke="#e11d48" stroke-width="2.2"/><circle cx="263.7" cy="419.6" r="3.4" fill="#e11d48" fill-opacity="0.85"/><circle cx="79.7" cy="439.3" r="9" fill="#ccfbf1" stroke="#0d9488" stroke-width="2.2"/><circle cx="81.3" cy="438.2" r="3.4" fill="#0d9488" fill-opacity="0.85"/><circle cx="96.8" cy="435.9" r="9" fill="#ede9fe" stroke="#7c3aed" stroke-width="2.2"/><circle cx="98.4" cy="434.8" r="3.4" fill="#7c3aed" fill-opacity="0.85"/><circle cx="122.8" cy="435.9" r="9" fill="#ede9fe" stroke="#7c3aed" stroke-width="2.2"/><circle cx="124.4" cy="434.8" r="3.4" fill="#7c3aed" fill-opacity="0.85"/><circle cx="145.9" cy="438.9" r="9" fill="#ede9fe" stroke="#7c3aed" stroke-width="2.2"/><circle cx="147.5" cy="437.8" r="3.4" fill="#7c3aed" fill-opacity="0.85"/><circle cx="165.3" cy="435.8" r="9" fill="#ede9fe" stroke="#7c3aed" stroke-width="2.2"/><circle cx="166.9" cy="434.7" r="3.4" fill="#7c3aed" fill-opacity="0.85"/><circle cx="189.8" cy="438.9" r="9" fill="#ffe4e6" stroke="#e11d48" stroke-width="2.2"/><circle cx="191.4" cy="437.8" r="3.4" fill="#e11d48" fill-opacity="0.85"/><circle cx="211.6" cy="437.6" r="9" fill="#ffe4e6" stroke="#e11d48" stroke-width="2.2"/><circle cx="213.2" cy="436.5" r="3.4" fill="#e11d48" fill-opacity="0.85"/><circle cx="233.0" cy="436.3" r="9" fill="#ffe4e6" stroke="#e11d48" stroke-width="2.2"/><circle cx="234.6" cy="435.2" r="3.4" fill="#e11d48" fill-opacity="0.85"/><circle cx="251.8" cy="436.4" r="9" fill="#ffe4e6" stroke="#e11d48" stroke-width="2.2"/><circle cx="253.4" cy="435.3" r="3.4" fill="#e11d48" fill-opacity="0.85"/><circle cx="87.1" cy="456.7" r="9" fill="#ccfbf1" stroke="#0d9488" stroke-width="2.2"/><circle cx="88.7" cy="455.6" r="3.4" fill="#0d9488" fill-opacity="0.85"/><circle cx="112.4" cy="456.5" r="9" fill="#ede9fe" stroke="#7c3aed" stroke-width="2.2"/><circle cx="114.0" cy="455.4" r="3.4" fill="#7c3aed" fill-opacity="0.85"/><circle cx="132.0" cy="457.2" r="9" fill="#ede9fe" stroke="#7c3aed" stroke-width="2.2"/><circle cx="133.6" cy="456.1" r="3.4" fill="#7c3aed" fill-opacity="0.85"/><circle cx="151.1" cy="456.6" r="9" fill="#ede9fe" stroke="#7c3aed" stroke-width="2.2"/><circle cx="152.7" cy="455.5" r="3.4" fill="#7c3aed" fill-opacity="0.85"/><circle cx="173.0" cy="458.8" r="9" fill="#ede9fe" stroke="#7c3aed" stroke-width="2.2"/><circle cx="174.6" cy="457.7" r="3.4" fill="#7c3aed" fill-opacity="0.85"/><circle cx="197.8" cy="458.4" r="9" fill="#ffe4e6" stroke="#e11d48" stroke-width="2.2"/><circle cx="199.4" cy="457.3" r="3.4" fill="#e11d48" fill-opacity="0.85"/><circle cx="219.0" cy="457.1" r="9" fill="#ffe4e6" stroke="#e11d48" stroke-width="2.2"/><circle cx="220.6" cy="456.0" r="3.4" fill="#e11d48" fill-opacity="0.85"/><circle cx="243.7" cy="454.6" r="9" fill="#ffe4e6" stroke="#e11d48" stroke-width="2.2"/><circle cx="245.3" cy="453.5" r="3.4" fill="#e11d48" fill-opacity="0.85"/><circle cx="99.7" cy="476.0" r="9" fill="#ede9fe" stroke="#7c3aed" stroke-width="2.2"/><circle cx="101.3" cy="474.9" r="3.4" fill="#7c3aed" fill-opacity="0.85"/><circle cx="122.2" cy="475.7" r="9" fill="#ede9fe" stroke="#7c3aed" stroke-width="2.2"/><circle cx="123.8" cy="474.6" r="3.4" fill="#7c3aed" fill-opacity="0.85"/><circle cx="142.9" cy="478.6" r="9" fill="#ffe4e6" stroke="#e11d48" stroke-width="2.2"/><circle cx="144.5" cy="477.5" r="3.4" fill="#e11d48" fill-opacity="0.85"/><circle cx="167.3" cy="478.7" r="9" fill="#ede9fe" stroke="#7c3aed" stroke-width="2.2"/><circle cx="168.9" cy="477.6" r="3.4" fill="#7c3aed" fill-opacity="0.85"/><circle cx="187.4" cy="478.7" r="9" fill="#ffe4e6" stroke="#e11d48" stroke-width="2.2"/><circle cx="189.0" cy="477.6" r="3.4" fill="#e11d48" fill-opacity="0.85"/><circle cx="206.8" cy="473.7" r="9" fill="#ffe4e6" stroke="#e11d48" stroke-width="2.2"/><circle cx="208.4" cy="472.6" r="3.4" fill="#e11d48" fill-opacity="0.85"/><circle cx="228.4" cy="474.4" r="9" fill="#ffe4e6" stroke="#e11d48" stroke-width="2.2"/><circle cx="230.0" cy="473.3" r="3.4" fill="#e11d48" fill-opacity="0.85"/><circle cx="134.7" cy="494.4" r="9" fill="#ede9fe" stroke="#7c3aed" stroke-width="2.2"/><circle cx="136.3" cy="493.3" r="3.4" fill="#7c3aed" fill-opacity="0.85"/><circle cx="156.9" cy="497.0" r="9" fill="#ede9fe" stroke="#7c3aed" stroke-width="2.2"/><circle cx="158.5" cy="495.9" r="3.4" fill="#7c3aed" fill-opacity="0.85"/><circle cx="175.6" cy="495.1" r="9" fill="#ffe4e6" stroke="#e11d48" stroke-width="2.2"/><circle cx="177.2" cy="494.0" r="3.4" fill="#e11d48" fill-opacity="0.85"/><circle cx="196.2" cy="493.9" r="9" fill="#ffe4e6" stroke="#e11d48" stroke-width="2.2"/><circle cx="197.8" cy="492.8" r="3.4" fill="#e11d48" fill-opacity="0.85"/><text x="165" y="556" font-size="22" fill="#000" text-anchor="middle" font-weight="600" >tissue</text><circle cx="25" cy="598" r="10" fill="#ccfbf1" stroke="#0d9488" stroke-width="2.2"/><circle cx="26.8" cy="596.8" r="3.8" fill="#0d9488" fill-opacity="0.85"/><text x="40" y="604" font-size="18" fill="#000" text-anchor="start" font-weight="400" >state A</text><circle cx="125" cy="598" r="10" fill="#ede9fe" stroke="#7c3aed" stroke-width="2.2"/><circle cx="126.8" cy="596.8" r="3.8" fill="#7c3aed" fill-opacity="0.85"/><text x="140" y="604" font-size="18" fill="#000" text-anchor="start" font-weight="400" >state B</text><circle cx="225" cy="598" r="10" fill="#ffe4e6" stroke="#e11d48" stroke-width="2.2"/><circle cx="226.8" cy="596.8" r="3.8" fill="#e11d48" fill-opacity="0.85"/><text x="240" y="604" font-size="18" fill="#000" text-anchor="start" font-weight="400" >state C</text><g transform="translate(325.0,345.0) scale(1.250)" fill="none" stroke="#1f2937" stroke-width="2" stroke-linecap="round" stroke-linejoin="round"><path d="M3 7V5a2 2 0 0 1 2-2h2" />
  <path d="M17 3h2a2 2 0 0 1 2 2v2" />
  <path d="M21 17v2a2 2 0 0 1-2 2h-2" />
  <path d="M7 21H5a2 2 0 0 1-2-2v-2" /></g><line x1="300" y1="400" x2="385" y2="400" stroke="#1f2937" stroke-width="2.6" marker-end="url(#ak)"/><circle cx="340" cy="440" r="15" fill="#1f2937" stroke="#fff" stroke-width="2.5"/><text x="340" y="445.5" font-size="15" fill="#fff" text-anchor="middle" font-weight="700" >1</text><circle cx="690" cy="410" r="182" fill="#dbeafe" opacity="0.5"/><text x="552" y="476" font-size="24" fill="#000" text-anchor="start" font-weight="700" font-style="italic">N(i)</text><line x1="690.0" y1="410.0" x2="575.0" y2="290.0" stroke="#9ca3af" stroke-width="2.4" stroke-opacity="1" stroke-linecap="round"/><line x1="690.0" y1="410.0" x2="830.0" y2="300.0" stroke="#9ca3af" stroke-width="2.4" stroke-opacity="1" stroke-linecap="round"/><line x1="690.0" y1="410.0" x2="585.0" y2="545.0" stroke="#9ca3af" stroke-width="2.4" stroke-opacity="1" stroke-linecap="round"/><line x1="690.0" y1="410.0" x2="810.0" y2="530.0" stroke="#9ca3af" stroke-width="2.4" stroke-opacity="1" stroke-linecap="round"/><line x1="575.0" y1="290.0" x2="470.0" y2="175.0" stroke="#9ca3af" stroke-width="2.4" stroke-opacity="1" stroke-linecap="round"/><line x1="830.0" y1="300.0" x2="945.0" y2="175.0" stroke="#9ca3af" stroke-width="2.4" stroke-opacity="1" stroke-linecap="round"/><line x1="585.0" y1="545.0" x2="470.0" y2="650.0" stroke="#9ca3af" stroke-width="2.4" stroke-opacity="1" stroke-linecap="round"/><line x1="810.0" y1="530.0" x2="960.0" y2="650.0" stroke="#9ca3af" stroke-width="2.4" stroke-opacity="1" stroke-linecap="round"/><line x1="575.0" y1="290.0" x2="830.0" y2="300.0" stroke="#9ca3af" stroke-width="2.4" stroke-opacity="1" stroke-linecap="round"/><line x1="945.0" y1="175.0" x2="960.0" y2="650.0" stroke="#9ca3af" stroke-width="2.4" stroke-opacity="1" stroke-linecap="round"/><line x1="470.0" y1="175.0" x2="470.0" y2="650.0" stroke="#9ca3af" stroke-width="2.4" stroke-opacity="1" stroke-linecap="round"/><line x1="946.9" y1="621.6" x2="843.7" y2="539.1" stroke="#ea580c" stroke-width="2.6" stroke-opacity="1" stroke-dasharray="7 5" stroke-linecap="round" marker-end="url(#ao)"/><line x1="800.1" y1="500.3" x2="725.4" y2="425.6" stroke="#ea580c" stroke-width="2.6" stroke-opacity="1" stroke-dasharray="7 5" stroke-linecap="round" marker-end="url(#ao)"/><text x="960" y="712" font-size="21" fill="#000" text-anchor="middle" font-weight="700" >k steps</text><line x1="594.4" y1="310.2" x2="665.1" y2="384.0" stroke="#2563eb" stroke-width="3.4" stroke-opacity="1" stroke-linecap="round" marker-end="url(#ab)"/><line x1="808.0" y1="317.3" x2="718.3" y2="387.8" stroke="#2563eb" stroke-width="3.4" stroke-opacity="1" stroke-linecap="round" marker-end="url(#ab)"/><line x1="602.2" y1="522.9" x2="667.9" y2="438.4" stroke="#2563eb" stroke-width="3.4" stroke-opacity="1" stroke-linecap="round" marker-end="url(#ab)"/><line x1="790.2" y1="510.2" x2="715.5" y2="435.5" stroke="#2563eb" stroke-width="3.4" stroke-opacity="1" stroke-linecap="round" marker-end="url(#ab)"/><rect x="618.5" y="336.0" width="28" height="28" rx="7" fill="#fff" stroke="#ea580c" stroke-width="2"/><text x="632.5" y="356.16" font-size="17.36" fill="#000" text-anchor="middle" font-weight="700" font-style="italic">φ</text><rect x="746.0" y="341.0" width="28" height="28" rx="7" fill="#fff" stroke="#ea580c" stroke-width="2"/><text x="760.0" y="361.16" font-size="17.36" fill="#000" text-anchor="middle" font-weight="700" font-style="italic">φ</text><rect x="623.5" y="463.5" width="28" height="28" rx="7" fill="#fff" stroke="#ea580c" stroke-width="2"/><text x="637.5" y="483.66" font-size="17.36" fill="#000" text-anchor="middle" font-weight="700" font-style="italic">φ</text><rect x="736.0" y="456.0" width="28" height="28" rx="7" fill="#fff" stroke="#ea580c" stroke-width="2"/><text x="750.0" y="476.16" font-size="17.36" fill="#000" text-anchor="middle" font-weight="700" font-style="italic">φ</text><rect x="508.5" y="218.5" width="28" height="28" rx="7" fill="#fff" stroke="#ea580c" stroke-width="2"/><text x="522.5" y="238.66" font-size="17.36" fill="#000" text-anchor="middle" font-weight="700" font-style="italic">φ</text><rect x="873.5" y="223.5" width="28" height="28" rx="7" fill="#fff" stroke="#ea580c" stroke-width="2"/><text x="887.5" y="243.66" font-size="17.36" fill="#000" text-anchor="middle" font-weight="700" font-style="italic">φ</text><rect x="513.5" y="583.5" width="28" height="28" rx="7" fill="#fff" stroke="#ea580c" stroke-width="2"/><text x="527.5" y="603.66" font-size="17.36" fill="#000" text-anchor="middle" font-weight="700" font-style="italic">φ</text><rect x="871.0" y="576.0" width="28" height="28" rx="7" fill="#fff" stroke="#ea580c" stroke-width="2"/><text x="885.0" y="596.16" font-size="17.36" fill="#000" text-anchor="middle" font-weight="700" font-style="italic">φ</text><rect x="688.5" y="281.0" width="28" height="28" rx="7" fill="#fff" stroke="#ea580c" stroke-width="2"/><text x="702.5" y="301.16" font-size="17.36" fill="#000" text-anchor="middle" font-weight="700" font-style="italic">φ</text><rect x="938.5" y="398.5" width="28" height="28" rx="7" fill="#fff" stroke="#ea580c" stroke-width="2"/><text x="952.5" y="418.66" font-size="17.36" fill="#000" text-anchor="middle" font-weight="700" font-style="italic">φ</text><rect x="456.0" y="398.5" width="28" height="28" rx="7" fill="#fff" stroke="#ea580c" stroke-width="2"/><text x="470.0" y="418.66" font-size="17.36" fill="#000" text-anchor="middle" font-weight="700" font-style="italic">φ</text><circle cx="575" cy="290" r="22" fill="#ccfbf1" stroke="#0d9488" stroke-width="2.2"/><circle cx="579.0" cy="287.4" r="8.4" fill="#0d9488" fill-opacity="0.85"/><circle cx="830" cy="300" r="22" fill="#ede9fe" stroke="#7c3aed" stroke-width="2.2"/><circle cx="834.0" cy="297.4" r="8.4" fill="#7c3aed" fill-opacity="0.85"/><circle cx="585" cy="545" r="22" fill="#ccfbf1" stroke="#0d9488" stroke-width="2.2"/><circle cx="589.0" cy="542.4" r="8.4" fill="#0d9488" fill-opacity="0.85"/><circle cx="810" cy="530" r="22" fill="#ffe4e6" stroke="#e11d48" stroke-width="2.2"/><circle cx="814.0" cy="527.4" r="8.4" fill="#e11d48" fill-opacity="0.85"/><circle cx="470" cy="175" r="22" fill="#ede9fe" stroke="#7c3aed" stroke-width="2.2"/><circle cx="474.0" cy="172.4" r="8.4" fill="#7c3aed" fill-opacity="0.85"/><circle cx="945" cy="175" r="22" fill="#ffe4e6" stroke="#e11d48" stroke-width="2.2"/><circle cx="949.0" cy="172.4" r="8.4" fill="#e11d48" fill-opacity="0.85"/><circle cx="470" cy="650" r="22" fill="#ccfbf1" stroke="#0d9488" stroke-width="2.2"/><circle cx="474.0" cy="647.4" r="8.4" fill="#0d9488" fill-opacity="0.85"/><circle cx="960" cy="650" r="28" fill="none" stroke="#ea580c" stroke-width="3"/><circle cx="960" cy="650" r="22" fill="#ede9fe" stroke="#7c3aed" stroke-width="2.2"/><circle cx="964.0" cy="647.4" r="8.4" fill="#7c3aed" fill-opacity="0.85"/><circle cx="690" cy="410" r="32" fill="none" stroke="#2563eb" stroke-width="3"/><circle cx="690" cy="410" r="26" fill="#ccfbf1" stroke="#0d9488" stroke-width="2.2"/><circle cx="694.7" cy="406.9" r="9.9" fill="#0d9488" fill-opacity="0.85"/><text x="690" y="364" font-size="26" fill="#000" text-anchor="middle" font-weight="700" font-style="italic">i</text><text x="996" y="657" font-size="26" fill="#000" text-anchor="start" font-weight="700" font-style="italic">j</text><circle cx="532" cy="470" r="15" fill="#1f2937" stroke="#fff" stroke-width="2.5"/><text x="532" y="475.5" font-size="15" fill="#fff" text-anchor="middle" font-weight="700" >2</text><circle cx="730" cy="274" r="15" fill="#1f2937" stroke="#fff" stroke-width="2.5"/><text x="730" y="279.5" font-size="15" fill="#fff" text-anchor="middle" font-weight="700" >4</text><line x1="720.0" y1="402.0" x2="1090.0" y2="170.0" stroke="#9ca3af" stroke-width="1.4" stroke-opacity="1" stroke-dasharray="3 5" stroke-linecap="round"/><line x1="720.0" y1="418.0" x2="1090.0" y2="630.0" stroke="#9ca3af" stroke-width="1.4" stroke-opacity="1" stroke-dasharray="3 5" stroke-linecap="round"/><rect x="1090" y="150" width="480" height="500" rx="0" fill="#fff" stroke="#1f2937" stroke-width="1.6"/><g transform="translate(1107.0,169.0) scale(0.917)" fill="none" stroke="#6b7280" stroke-width="2" stroke-linecap="round" stroke-linejoin="round"><circle cx="11" cy="11" r="8" />
  <line x1="21" x2="16.65" y1="21" y2="16.65" />
  <line x1="11" x2="11" y1="8" y2="14" />
  <line x1="8" x2="14" y1="11" y2="11" /></g><text x="1138" y="188" font-size="21" fill="#000" text-anchor="start" font-weight="600" >update of i</text><circle cx="1130" cy="235" r="18" fill="#ccfbf1" stroke="#0d9488" stroke-width="2.2"/><circle cx="1133.2" cy="232.8" r="6.8" fill="#0d9488" fill-opacity="0.85"/><line x1="1152" y1="235" x2="1180" y2="235" stroke="#ea580c" stroke-width="2.2" marker-end="url(#ao)"/><rect x="1190.0" y="220.0" width="30" height="30" rx="7" fill="#fff" stroke="#ea580c" stroke-width="2"/><text x="1205" y="241.6" font-size="18.6" fill="#000" text-anchor="middle" font-weight="700" font-style="italic">φ</text><line x1="1223" y1="235" x2="1243" y2="235" stroke="#2563eb" stroke-width="2.2" marker-end="url(#ab)"/><rect x="1252" y="227" width="16" height="16" rx="2" fill="#bfdbfe" stroke="#fff" stroke-width="1.5"/><rect x="1268" y="227" width="16" height="16" rx="2" fill="#60a5fa" stroke="#fff" stroke-width="1.5"/><rect x="1284" y="227" width="16" height="16" rx="2" fill="#1d4ed8" stroke="#fff" stroke-width="1.5"/><path d="M1302,235 C1340,235 1345,362 1367,362" fill="none" stroke="#2563eb" stroke-width="2.2" marker-end="url(#ab)"/><circle cx="1130" cy="320" r="18" fill="#ede9fe" stroke="#7c3aed" stroke-width="2.2"/><circle cx="1133.2" cy="317.8" r="6.8" fill="#7c3aed" fill-opacity="0.85"/><line x1="1152" y1="320" x2="1180" y2="320" stroke="#ea580c" stroke-width="2.2" marker-end="url(#ao)"/><rect x="1190.0" y="305.0" width="30" height="30" rx="7" fill="#fff" stroke="#ea580c" stroke-width="2"/><text x="1205" y="326.6" font-size="18.6" fill="#000" text-anchor="middle" font-weight="700" font-style="italic">φ</text><line x1="1223" y1="320" x2="1243" y2="320" stroke="#2563eb" stroke-width="2.2" marker-end="url(#ab)"/><rect x="1252" y="312" width="16" height="16" rx="2" fill="#dbeafe" stroke="#fff" stroke-width="1.5"/><rect x="1268" y="312" width="16" height="16" rx="2" fill="#3b82f6" stroke="#fff" stroke-width="1.5"/><rect x="1284" y="312" width="16" height="16" rx="2" fill="#1e40af" stroke="#fff" stroke-width="1.5"/><path d="M1302,320 C1340,320 1345,362 1367,362" fill="none" stroke="#2563eb" stroke-width="2.2" marker-end="url(#ab)"/><circle cx="1130" cy="405" r="18" fill="#ccfbf1" stroke="#0d9488" stroke-width="2.2"/><circle cx="1133.2" cy="402.8" r="6.8" fill="#0d9488" fill-opacity="0.85"/><line x1="1152" y1="405" x2="1180" y2="405" stroke="#ea580c" stroke-width="2.2" marker-end="url(#ao)"/><rect x="1190.0" y="390.0" width="30" height="30" rx="7" fill="#fff" stroke="#ea580c" stroke-width="2"/><text x="1205" y="411.6" font-size="18.6" fill="#000" text-anchor="middle" font-weight="700" font-style="italic">φ</text><line x1="1223" y1="405" x2="1243" y2="405" stroke="#2563eb" stroke-width="2.2" marker-end="url(#ab)"/><rect x="1252" y="397" width="16" height="16" rx="2" fill="#93c5fd" stroke="#fff" stroke-width="1.5"/><rect x="1268" y="397" width="16" height="16" rx="2" fill="#2563eb" stroke="#fff" stroke-width="1.5"/><rect x="1284" y="397" width="16" height="16" rx="2" fill="#bfdbfe" stroke="#fff" stroke-width="1.5"/><path d="M1302,405 C1340,405 1345,362 1367,362" fill="none" stroke="#2563eb" stroke-width="2.2" marker-end="url(#ab)"/><circle cx="1130" cy="490" r="18" fill="#ffe4e6" stroke="#e11d48" stroke-width="2.2"/><circle cx="1133.2" cy="487.8" r="6.8" fill="#e11d48" fill-opacity="0.85"/><line x1="1152" y1="490" x2="1180" y2="490" stroke="#ea580c" stroke-width="2.2" marker-end="url(#ao)"/><rect x="1190.0" y="475.0" width="30" height="30" rx="7" fill="#fff" stroke="#ea580c" stroke-width="2"/><text x="1205" y="496.6" font-size="18.6" fill="#000" text-anchor="middle" font-weight="700" font-style="italic">φ</text><line x1="1223" y1="490" x2="1243" y2="490" stroke="#2563eb" stroke-width="2.2" marker-end="url(#ab)"/><rect x="1252" y="482" width="16" height="16" rx="2" fill="#60a5fa" stroke="#fff" stroke-width="1.5"/><rect x="1268" y="482" width="16" height="16" rx="2" fill="#1e3a8a" stroke="#fff" stroke-width="1.5"/><rect x="1284" y="482" width="16" height="16" rx="2" fill="#93c5fd" stroke="#fff" stroke-width="1.5"/><path d="M1302,490 C1340,490 1345,362 1367,362" fill="none" stroke="#2563eb" stroke-width="2.2" marker-end="url(#ab)"/><path d="M1110,212 L1102,212 L1102,513 L1110,513" fill="none" stroke="#6b7280" stroke-width="1.8"/><circle cx="1205" cy="598" r="20" fill="#fff" stroke="#1f2937" stroke-width="1.8"/><g transform="translate(1194.0,587.0) scale(0.917)" fill="none" stroke="#1f2937" stroke-width="2" stroke-linecap="round" stroke-linejoin="round"><path d="m18 14 4 4-4 4" />
  <path d="m18 2 4 4-4 4" />
  <path d="M2 18h1.973a4 4 0 0 0 3.3-1.7l5.454-8.6a4 4 0 0 1 3.3-1.7H22" />
  <path d="M2 6h1.972a4 4 0 0 1 3.6 2.2" />
  <path d="M22 18h-6.041a4 4 0 0 1-3.3-1.8l-.359-.45" /></g><text x="1235" y="605" font-size="20" fill="#000" text-anchor="start" font-weight="600" >any order</text><text x="1218" y="546" font-size="21" fill="#000" text-anchor="start" font-weight="700" font-style="italic">same φ</text><circle cx="1192" cy="539" r="15" fill="#1f2937" stroke="#fff" stroke-width="2.5"/><text x="1192" y="544.5" font-size="15" fill="#fff" text-anchor="middle" font-weight="700" >4</text><rect x="1375" y="322" width="80" height="80" rx="16" fill="#1f2937"/><g transform="translate(1398.0,345.0) scale(1.417)" fill="none" stroke="#fff" stroke-width="2.4" stroke-linecap="round" stroke-linejoin="round"><path d="M18 7V5a1 1 0 0 0-1-1H6.5a.5.5 0 0 0-.4.8l4.5 6a2 2 0 0 1 0 2.4l-4.5 6a.5.5 0 0 0 .4.8H17a1 1 0 0 0 1-1v-2" /></g><text x="1415" y="430" font-size="18" fill="#000" text-anchor="middle" font-weight="400" >sum · mean · max</text><circle cx="1453" cy="322" r="15" fill="#1f2937" stroke="#fff" stroke-width="2.5"/><text x="1453" y="327.5" font-size="15" fill="#fff" text-anchor="middle" font-weight="700" >3</text><line x1="1457" y1="362" x2="1490" y2="362" stroke="#1f2937" stroke-width="2.2" marker-end="url(#ak)"/><rect x="1494" y="345" width="34" height="34" rx="8" fill="#fff" stroke="#2563eb" stroke-width="2"/><text x="1511" y="369" font-size="21" fill="#000" text-anchor="middle" font-weight="700" font-style="italic">φ</text><line x1="1511" y1="381" x2="1511" y2="444" stroke="#1f2937" stroke-width="2.2" marker-end="url(#ak)"/><circle cx="1511" cy="480" r="30" fill="none" stroke="#2563eb" stroke-width="3"/><circle cx="1511" cy="480" r="24" fill="#0d9488" stroke="#0d9488" stroke-width="2.2"/><circle cx="1515.3" cy="477.1" r="9.1" fill="#fff" fill-opacity="0.9"/><text x="1511" y="534" font-size="24" fill="#000" text-anchor="middle" font-weight="700" font-style="italic">i′</text><circle cx="38" cy="812" r="15" fill="#1f2937" stroke="#fff" stroke-width="2.5"/><text x="38" y="817.5" font-size="15" fill="#fff" text-anchor="middle" font-weight="700" >1</text><g transform="translate(62.0,796.0) scale(1.333)" fill="none" stroke="#1f2937" stroke-width="2" stroke-linecap="round" stroke-linejoin="round"><path d="M15.39 4.39a1 1 0 0 0 1.68-.474 2.5 2.5 0 1 1 3.014 3.015 1 1 0 0 0-.474 1.68l1.683 1.682a2.414 2.414 0 0 1 0 3.414L19.61 15.39a1 1 0 0 1-1.68-.474 2.5 2.5 0 1 0-3.014 3.015 1 1 0 0 1 .474 1.68l-1.683 1.682a2.414 2.414 0 0 1-3.414 0L8.61 19.61a1 1 0 0 0-1.68.474 2.5 2.5 0 1 1-3.014-3.015 1 1 0 0 0 .474-1.68l-1.683-1.682a2.414 2.414 0 0 1 0-3.414L4.39 8.61a1 1 0 0 1 1.68.474 2.5 2.5 0 1 0 3.014-3.015 1 1 0 0 1-.474-1.68l1.683-1.682a2.414 2.414 0 0 1 3.414 0z" /></g><text x="108" y="804" font-size="29" fill="#000" text-anchor="start" font-weight="700" >Decomposability</text><text x="108" y="839" font-size="25" fill="#000" text-anchor="start" font-weight="400" >cells + neighbor relations</text><circle cx="423" cy="812" r="15" fill="#1f2937" stroke="#fff" stroke-width="2.5"/><text x="423" y="817.5" font-size="15" fill="#fff" text-anchor="middle" font-weight="700" >2</text><g transform="translate(447.0,796.0) scale(1.333)" fill="none" stroke="#1f2937" stroke-width="2" stroke-linecap="round" stroke-linejoin="round"><path d="M20.341 6.484A10 10 0 0 1 10.266 21.85" />
  <path d="M3.659 17.516A10 10 0 0 1 13.74 2.152" />
  <circle cx="12" cy="12" r="3" />
  <circle cx="19" cy="5" r="2" />
  <circle cx="5" cy="19" r="2" /></g><text x="493" y="804" font-size="29" fill="#000" text-anchor="start" font-weight="700" >Locality</text><text x="493" y="839" font-size="25" fill="#000" text-anchor="start" font-weight="400" >neighbors only, per step</text><circle cx="808" cy="812" r="15" fill="#1f2937" stroke="#fff" stroke-width="2.5"/><text x="808" y="817.5" font-size="15" fill="#fff" text-anchor="middle" font-weight="700" >3</text><g transform="translate(832.0,796.0) scale(1.333)" fill="none" stroke="#1f2937" stroke-width="2" stroke-linecap="round" stroke-linejoin="round"><path d="m18 14 4 4-4 4" />
  <path d="m18 2 4 4-4 4" />
  <path d="M2 18h1.973a4 4 0 0 0 3.3-1.7l5.454-8.6a4 4 0 0 1 3.3-1.7H22" />
  <path d="M2 6h1.972a4 4 0 0 1 3.6 2.2" />
  <path d="M22 18h-6.041a4 4 0 0 1-3.3-1.8l-.359-.45" /></g><text x="878" y="804" font-size="29" fill="#000" text-anchor="start" font-weight="700" >Permutation invariance</text><text x="878" y="839" font-size="25" fill="#000" text-anchor="start" font-weight="400" >order-free aggregation</text><circle cx="1193" cy="812" r="15" fill="#1f2937" stroke="#fff" stroke-width="2.5"/><text x="1193" y="817.5" font-size="15" fill="#fff" text-anchor="middle" font-weight="700" >4</text><g transform="translate(1217.0,796.0) scale(1.333)" fill="none" stroke="#1f2937" stroke-width="2" stroke-linecap="round" stroke-linejoin="round"><path d="m17 2 4 4-4 4" />
  <path d="M3 11v-1a4 4 0 0 1 4-4h14" />
  <path d="m7 22-4-4 4-4" />
  <path d="M21 13v1a4 4 0 0 1-4 4H3" /></g><text x="1263" y="804" font-size="29" fill="#000" text-anchor="start" font-weight="700" >Function reuse</text><text x="1263" y="839" font-size="25" fill="#000" text-anchor="start" font-weight="400" >one φ for every edge / node</text></svg>