<svg xmlns="http://www.w3.org/2000/svg" width="1600" height="840" viewBox="0 55 1600 840" role="img" aria-label="One graph showing the four structural assumptions of graph networks" font-family="Helvetica Neue, Helvetica, Arial, sans-serif"><defs>
<marker id="ab" viewBox="0 0 10 10" refX="5" refY="5" markerWidth="4.2" markerHeight="4.2" orient="auto"><path d="M0,0 L10,5 L0,10 z" fill="#2563eb"/></marker>
<marker id="ao" viewBox="0 0 10 10" refX="5" refY="5" markerWidth="4.6" markerHeight="4.6" orient="auto"><path d="M0,0 L10,5 L0,10 z" fill="#ea580c"/></marker>
<marker id="ak" viewBox="0 0 10 10" refX="5" refY="5" markerWidth="4.6" markerHeight="4.6" orient="auto"><path d="M0,0 L10,5 L0,10 z" fill="#1f2937"/></marker>
</defs><rect y="0" width="1600" height="900" fill="#fff"/><circle cx="165" cy="400" r="120" fill="#eef2f7" stroke="#9ca3af" stroke-width="1.5" stroke-dasharray="4 5"/><path d="M105,445 Q194,435 240,410" fill="none" stroke="#cbd5e1" stroke-width="1.6"/><path d="M160,395 Q108,396 105,445" fill="none" stroke="#cbd5e1" stroke-width="1.6"/><path d="M205,330 Q213,354 110,345" fill="none" stroke="#cbd5e1" stroke-width="1.6"/><path d="M190,470 Q151,352 205,330" fill="none" stroke="#cbd5e1" stroke-width="1.6"/><path d="M205,330 Q193,389 110,345" fill="none" stroke="#cbd5e1" stroke-width="1.6"/><path d="M205,330 Q124,436 190,470" fill="none" stroke="#cbd5e1" stroke-width="1.6"/><path d="M205,330 Q179,355 105,445" fill="none" stroke="#cbd5e1" stroke-width="1.6"/><path d="M110,345 Q130,366 160,395" fill="none" stroke="#cbd5e1" stroke-width="1.6"/><path d="M205,330 Q140,455 160,395" fill="none" stroke="#cbd5e1" stroke-width="1.6"/><path d="M105,445 Q127,456 205,330" fill="none" stroke="#cbd5e1" stroke-width="1.6"/><path d="M205,330 Q141,383 190,470" fill="none" stroke="#cbd5e1" stroke-width="1.6"/><path d="M205,330 Q137,380 160,395" fill="none" stroke="#cbd5e1" stroke-width="1.6"/><path d="M105,445 Q105,421 160,395" fill="none" stroke="#cbd5e1" stroke-width="1.6"/><path d="M240,410 Q142,438 110,345" fill="none" stroke="#cbd5e1" stroke-width="1.6"/><path d="M190,470 Q127,397 240,410" fill="none" stroke="#cbd5e1" stroke-width="1.6"/><path d="M205,330 Q136,453 110,345" fill="none" stroke="#cbd5e1" stroke-width="1.6"/><circle cx="110" cy="345" r="17" fill="#eef2f7"/><g transform="translate(97.5,332.5) scale(1.042)" fill="none" stroke="#64748b" stroke-width="2" stroke-linecap="round" stroke-linejoin="round"><path d="m10 16 1.5 1.5" />
  <path d="m14 8-1.5-1.5" />
  <path d="M15 2c-1.798 1.998-2.518 3.995-2.807 5.993" />
  <path d="m16.5 10.5 1 1" />
  <path d="m17 6-2.891-2.891" />
  <path d="M2 15c6.667-6 13.333 0 20-6" />
  <path d="m20 9 .891.891" />
  <path d="M3.109 14.109 4 15" />
  <path d="m6.5 12.5 1 1" />
  <path d="m7 18 2.891 2.891" />
  <path d="M9 22c1.798-1.998 2.518-3.995 2.807-5.993" /></g><circle cx="205" cy="330" r="17" fill="#eef2f7"/><g transform="translate(192.5,317.5) scale(1.042)" fill="none" stroke="#64748b" stroke-width="2" stroke-linecap="round" stroke-linejoin="round"><circle cx="12" cy="12" r="1" />
  <path d="M20.2 20.2c2.04-2.03.02-7.36-4.5-11.9-4.54-4.52-9.87-6.54-11.9-4.5-2.04 2.03-.02 7.36 4.5 11.9 4.54 4.52 9.87 6.54 11.9 4.5Z" />
  <path d="M15.7 15.7c4.52-4.54 6.54-9.87 4.5-11.9-2.03-2.04-7.36-.02-11.9 4.5-4.52 4.54-6.54 9.87-4.5 11.9 2.03 2.04 7.36.02 11.9-4.5Z" /></g><circle cx="240" cy="410" r="17" fill="#eef2f7"/><g transform="translate(227.5,397.5) scale(1.042)" fill="none" stroke="#64748b" stroke-width="2" stroke-linecap="round" stroke-linejoin="round"><path d="m10.5 20.5 10-10a4.95 4.95 0 1 0-7-7l-10 10a4.95 4.95 0 1 0 7 7Z" />
  <path d="m8.5 8.5 7 7" /></g><circle cx="190" cy="470" r="17" fill="#eef2f7"/><g transform="translate(177.5,457.5) scale(1.042)" fill="none" stroke="#64748b" stroke-width="2" stroke-linecap="round" stroke-linejoin="round"><path d="M11 20a10 10 0 0010-10 25.9 25.9 0 00-1.04-7.281 1 1 0 00-1.755-.325C15.833 5.5 13 5.5 9.8 6.1A7 7 0 0011 20" />
  <path d="M2 21a5 5 0 012.911-4.544C7.613 15.212 8.351 15.24 11 13" /></g><circle cx="105" cy="445" r="17" fill="#eef2f7"/><g transform="translate(92.5,432.5) scale(1.042)" fill="none" stroke="#64748b" stroke-width="2" stroke-linecap="round" stroke-linejoin="round"><path d="M12 20v-9" />
  <path d="M14 7a4 4 0 0 1 4 4v3a6 6 0 0 1-12 0v-3a4 4 0 0 1 4-4z" />
  <path d="M14.12 3.88 16 2" />
  <path d="M21 21a4 4 0 0 0-3.81-4" />
  <path d="M21 5a4 4 0 0 1-3.55 3.97" />
  <path d="M22 13h-4" />
  <path d="M3 21a4 4 0 0 1 3.81-4" />
  <path d="M3 5a4 4 0 0 0 3.55 3.97" />
  <path d="M6 13H2" />
  <path d="m8 2 1.88 1.88" />
  <path d="M9 7.13V6a3 3 0 1 1 6 0v1.13" /></g><circle cx="160" cy="395" r="17" fill="#eef2f7"/><g transform="translate(147.5,382.5) scale(1.042)" fill="none" stroke="#64748b" stroke-width="2" stroke-linecap="round" stroke-linejoin="round"><path d="M14 2v6a2 2 0 0 0 .245.96l5.51 10.08A2 2 0 0 1 18 22H6a2 2 0 0 1-1.755-2.96l5.51-10.08A2 2 0 0 0 10 8V2" />
  <path d="M6.453 15h11.094" />
  <path d="M8.5 2h7" /></g><text x="165" y="552" font-size="16" fill="#6b7280" text-anchor="middle" font-weight="600" >world</text><g transform="translate(325.0,345.0) scale(1.250)" fill="none" stroke="#1f2937" stroke-width="2" stroke-linecap="round" stroke-linejoin="round"><path d="M3 7V5a2 2 0 0 1 2-2h2" />
  <path d="M17 3h2a2 2 0 0 1 2 2v2" />
  <path d="M21 17v2a2 2 0 0 1-2 2h-2" />
  <path d="M7 21H5a2 2 0 0 1-2-2v-2" /></g><line x1="300" y1="400" x2="385" y2="400" stroke="#1f2937" stroke-width="2.6" marker-end="url(#ak)"/><circle cx="340" cy="440" r="15" fill="#1f2937" stroke="#fff" stroke-width="2.5"/><text x="340" y="445.5" font-size="15" fill="#fff" text-anchor="middle" font-weight="700" >1</text><rect x="400" y="80" width="640" height="660" rx="18" fill="#fff" stroke="#e5e7eb" stroke-width="1.5"/><circle cx="690" cy="410" r="182" fill="#dbeafe" opacity="0.5"/><text x="552" y="476" font-size="18" fill="#2563eb" text-anchor="start" font-weight="700" font-style="italic">N(i)</text><line x1="690.0" y1="410.0" x2="575.0" y2="290.0" stroke="#9ca3af" stroke-width="2.4" stroke-opacity="1" stroke-linecap="round"/><line x1="690.0" y1="410.0" x2="830.0" y2="300.0" stroke="#9ca3af" stroke-width="2.4" stroke-opacity="1" stroke-linecap="round"/><line x1="690.0" y1="410.0" x2="585.0" y2="545.0" stroke="#9ca3af" stroke-width="2.4" stroke-opacity="1" stroke-linecap="round"/><line x1="690.0" y1="410.0" x2="810.0" y2="530.0" stroke="#9ca3af" stroke-width="2.4" stroke-opacity="1" stroke-linecap="round"/><line x1="575.0" y1="290.0" x2="470.0" y2="175.0" stroke="#9ca3af" stroke-width="2.4" stroke-opacity="1" stroke-linecap="round"/><line x1="830.0" y1="300.0" x2="945.0" y2="175.0" stroke="#9ca3af" stroke-width="2.4" stroke-opacity="1" stroke-linecap="round"/><line x1="585.0" y1="545.0" x2="470.0" y2="650.0" stroke="#9ca3af" stroke-width="2.4" stroke-opacity="1" stroke-linecap="round"/><line x1="810.0" y1="530.0" x2="960.0" y2="650.0" stroke="#9ca3af" stroke-width="2.4" stroke-opacity="1" stroke-linecap="round"/><line x1="575.0" y1="290.0" x2="830.0" y2="300.0" stroke="#9ca3af" stroke-width="2.4" stroke-opacity="1" stroke-linecap="round"/><line x1="945.0" y1="175.0" x2="960.0" y2="650.0" stroke="#9ca3af" stroke-width="2.4" stroke-opacity="1" stroke-linecap="round"/><line x1="470.0" y1="175.0" x2="470.0" y2="650.0" stroke="#9ca3af" stroke-width="2.4" stroke-opacity="1" stroke-linecap="round"/><line x1="946.9" y1="621.6" x2="843.7" y2="539.1" stroke="#ea580c" stroke-width="2.6" stroke-opacity="1" stroke-dasharray="7 5" stroke-linecap="round" marker-end="url(#ao)"/><line x1="800.1" y1="500.3" x2="725.4" y2="425.6" stroke="#ea580c" stroke-width="2.6" stroke-opacity="1" stroke-dasharray="7 5" stroke-linecap="round" marker-end="url(#ao)"/><text x="960" y="708" font-size="15" fill="#ea580c" text-anchor="middle" font-weight="700" >k steps</text><line x1="594.4" y1="310.2" x2="665.1" y2="384.0" stroke="#2563eb" stroke-width="3.4" stroke-opacity="1" stroke-linecap="round" marker-end="url(#ab)"/><line x1="808.0" y1="317.3" x2="718.3" y2="387.8" stroke="#2563eb" stroke-width="3.4" stroke-opacity="1" stroke-linecap="round" marker-end="url(#ab)"/><line x1="602.2" y1="522.9" x2="667.9" y2="438.4" stroke="#2563eb" stroke-width="3.4" stroke-opacity="1" stroke-linecap="round" marker-end="url(#ab)"/><line x1="790.2" y1="510.2" x2="715.5" y2="435.5" stroke="#2563eb" stroke-width="3.4" stroke-opacity="1" stroke-linecap="round" marker-end="url(#ab)"/><rect x="620.5" y="338.0" width="24" height="24" rx="7" fill="#fff" stroke="#ea580c" stroke-width="2"/><text x="632.5" y="355.28" font-size="14.879999999999999" fill="#ea580c" text-anchor="middle" font-weight="700" font-style="italic">φ</text><rect x="748.0" y="343.0" width="24" height="24" rx="7" fill="#fff" stroke="#ea580c" stroke-width="2"/><text x="760.0" y="360.28" font-size="14.879999999999999" fill="#ea580c" text-anchor="middle" font-weight="700" font-style="italic">φ</text><rect x="625.5" y="465.5" width="24" height="24" rx="7" fill="#fff" stroke="#ea580c" stroke-width="2"/><text x="637.5" y="482.78" font-size="14.879999999999999" fill="#ea580c" text-anchor="middle" font-weight="700" font-style="italic">φ</text><rect x="738.0" y="458.0" width="24" height="24" rx="7" fill="#fff" stroke="#ea580c" stroke-width="2"/><text x="750.0" y="475.28" font-size="14.879999999999999" fill="#ea580c" text-anchor="middle" font-weight="700" font-style="italic">φ</text><rect x="510.5" y="220.5" width="24" height="24" rx="7" fill="#fff" stroke="#ea580c" stroke-width="2"/><text x="522.5" y="237.78" font-size="14.879999999999999" fill="#ea580c" text-anchor="middle" font-weight="700" font-style="italic">φ</text><rect x="875.5" y="225.5" width="24" height="24" rx="7" fill="#fff" stroke="#ea580c" stroke-width="2"/><text x="887.5" y="242.78" font-size="14.879999999999999" fill="#ea580c" text-anchor="middle" font-weight="700" font-style="italic">φ</text><rect x="515.5" y="585.5" width="24" height="24" rx="7" fill="#fff" stroke="#ea580c" stroke-width="2"/><text x="527.5" y="602.78" font-size="14.879999999999999" fill="#ea580c" text-anchor="middle" font-weight="700" font-style="italic">φ</text><rect x="873.0" y="578.0" width="24" height="24" rx="7" fill="#fff" stroke="#ea580c" stroke-width="2"/><text x="885.0" y="595.28" font-size="14.879999999999999" fill="#ea580c" text-anchor="middle" font-weight="700" font-style="italic">φ</text><rect x="690.5" y="283.0" width="24" height="24" rx="7" fill="#fff" stroke="#ea580c" stroke-width="2"/><text x="702.5" y="300.28" font-size="14.879999999999999" fill="#ea580c" text-anchor="middle" font-weight="700" font-style="italic">φ</text><rect x="940.5" y="400.5" width="24" height="24" rx="7" fill="#fff" stroke="#ea580c" stroke-width="2"/><text x="952.5" y="417.78" font-size="14.879999999999999" fill="#ea580c" text-anchor="middle" font-weight="700" font-style="italic">φ</text><rect x="458.0" y="400.5" width="24" height="24" rx="7" fill="#fff" stroke="#ea580c" stroke-width="2"/><text x="470.0" y="417.78" font-size="14.879999999999999" fill="#ea580c" text-anchor="middle" font-weight="700" font-style="italic">φ</text><circle cx="575" cy="290" r="24" fill="#dbeafe" stroke="#2563eb" stroke-width="2.2"/><g transform="translate(561.2,276.2) scale(1.150)" fill="none" stroke="#2563eb" stroke-width="2" stroke-linecap="round" stroke-linejoin="round"><circle cx="12" cy="12" r="1" />
  <path d="M20.2 20.2c2.04-2.03.02-7.36-4.5-11.9-4.54-4.52-9.87-6.54-11.9-4.5-2.04 2.03-.02 7.36 4.5 11.9 4.54 4.52 9.87 6.54 11.9 4.5Z" />
  <path d="M15.7 15.7c4.52-4.54 6.54-9.87 4.5-11.9-2.03-2.04-7.36-.02-11.9 4.5-4.52 4.54-6.54 9.87-4.5 11.9 2.03 2.04 7.36.02 11.9-4.5Z" /></g><circle cx="830" cy="300" r="24" fill="#dbeafe" stroke="#2563eb" stroke-width="2.2"/><g transform="translate(816.2,286.2) scale(1.150)" fill="none" stroke="#2563eb" stroke-width="2" stroke-linecap="round" stroke-linejoin="round"><path d="m10.5 20.5 10-10a4.95 4.95 0 1 0-7-7l-10 10a4.95 4.95 0 1 0 7 7Z" />
  <path d="m8.5 8.5 7 7" /></g><circle cx="585" cy="545" r="24" fill="#dbeafe" stroke="#2563eb" stroke-width="2.2"/><g transform="translate(571.2,531.2) scale(1.150)" fill="none" stroke="#2563eb" stroke-width="2" stroke-linecap="round" stroke-linejoin="round"><path d="M11 20a10 10 0 0010-10 25.9 25.9 0 00-1.04-7.281 1 1 0 00-1.755-.325C15.833 5.5 13 5.5 9.8 6.1A7 7 0 0011 20" />
  <path d="M2 21a5 5 0 012.911-4.544C7.613 15.212 8.351 15.24 11 13" /></g><circle cx="810" cy="530" r="24" fill="#dbeafe" stroke="#2563eb" stroke-width="2.2"/><g transform="translate(796.2,516.2) scale(1.150)" fill="none" stroke="#2563eb" stroke-width="2" stroke-linecap="round" stroke-linejoin="round"><path d="M14 2v6a2 2 0 0 0 .245.96l5.51 10.08A2 2 0 0 1 18 22H6a2 2 0 0 1-1.755-2.96l5.51-10.08A2 2 0 0 0 10 8V2" />
  <path d="M6.453 15h11.094" />
  <path d="M8.5 2h7" /></g><circle cx="470" cy="175" r="24" fill="#dbeafe" stroke="#2563eb" stroke-width="2.2"/><g transform="translate(456.2,161.2) scale(1.150)" fill="none" stroke="#2563eb" stroke-width="2" stroke-linecap="round" stroke-linejoin="round"><path d="M12 20v-9" />
  <path d="M14 7a4 4 0 0 1 4 4v3a6 6 0 0 1-12 0v-3a4 4 0 0 1 4-4z" />
  <path d="M14.12 3.88 16 2" />
  <path d="M21 21a4 4 0 0 0-3.81-4" />
  <path d="M21 5a4 4 0 0 1-3.55 3.97" />
  <path d="M22 13h-4" />
  <path d="M3 21a4 4 0 0 1 3.81-4" />
  <path d="M3 5a4 4 0 0 0 3.55 3.97" />
  <path d="M6 13H2" />
  <path d="m8 2 1.88 1.88" />
  <path d="M9 7.13V6a3 3 0 1 1 6 0v1.13" /></g><circle cx="945" cy="175" r="24" fill="#dbeafe" stroke="#2563eb" stroke-width="2.2"/><g transform="translate(931.2,161.2) scale(1.150)" fill="none" stroke="#2563eb" stroke-width="2" stroke-linecap="round" stroke-linejoin="round"><path d="M17 10c.7-.7 1.69 0 2.5 0a2.5 2.5 0 1 0 0-5 .5.5 0 0 1-.5-.5 2.5 2.5 0 1 0-5 0c0 .81.7 1.8 0 2.5l-7 7c-.7.7-1.69 0-2.5 0a2.5 2.5 0 0 0 0 5c.28 0 .5.22.5.5a2.5 2.5 0 1 0 5 0c0-.81-.7-1.8 0-2.5Z" /></g><circle cx="470" cy="650" r="24" fill="#dbeafe" stroke="#2563eb" stroke-width="2.2"/><g transform="translate(456.2,636.2) scale(1.150)" fill="none" stroke="#2563eb" stroke-width="2" stroke-linecap="round" stroke-linejoin="round"><path d="m18 2 4 4" />
  <path d="m17 7 3-3" />
  <path d="M19 9 8.7 19.3c-1 1-2.5 1-3.4 0l-.6-.6c-1-1-1-2.5 0-3.4L15 5" />
  <path d="m9 11 4 4" />
  <path d="m5 19-3 3" />
  <path d="m14 4 6 6" /></g><circle cx="960" cy="650" r="24" fill="#ffedd5" stroke="#ea580c" stroke-width="2.2"/><g transform="translate(946.2,636.2) scale(1.150)" fill="none" stroke="#ea580c" stroke-width="2" stroke-linecap="round" stroke-linejoin="round"><path d="M2 9.5a5.5 5.5 0 0 1 9.591-3.676.56.56 0 0 0 .818 0A5.49 5.49 0 0 1 22 9.5c0 2.29-1.5 4-3 5.5l-5.492 5.313a2 2 0 0 1-3 .019L5 15c-1.5-1.5-3-3.2-3-5.5" />
  <path d="M3.22 13H9.5l.5-1 2 4.5 2-7 1.5 3.5h5.27" /></g><circle cx="690" cy="410" r="30" fill="#2563eb" stroke="#2563eb" stroke-width="2.2"/><g transform="translate(672.8,392.8) scale(1.438)" fill="none" stroke="#fff" stroke-width="2" stroke-linecap="round" stroke-linejoin="round"><path d="m10 16 1.5 1.5" />
  <path d="m14 8-1.5-1.5" />
  <path d="M15 2c-1.798 1.998-2.518 3.995-2.807 5.993" />
  <path d="m16.5 10.5 1 1" />
  <path d="m17 6-2.891-2.891" />
  <path d="M2 15c6.667-6 13.333 0 20-6" />
  <path d="m20 9 .891.891" />
  <path d="M3.109 14.109 4 15" />
  <path d="m6.5 12.5 1 1" />
  <path d="m7 18 2.891 2.891" />
  <path d="M9 22c1.798-1.998 2.518-3.995 2.807-5.993" /></g><text x="690" y="368" font-size="20" fill="#2563eb" text-anchor="middle" font-weight="700" font-style="italic">i</text><text x="992" y="657" font-size="20" fill="#ea580c" text-anchor="start" font-weight="700" font-style="italic">j</text><rect x="420" y="98" width="66" height="34" rx="9" fill="#1f2937"/><g transform="translate(431.5,105.5) scale(0.792)" fill="none" stroke="#fff" stroke-width="2" stroke-linecap="round" stroke-linejoin="round"><circle cx="12" cy="12" r="10" />
  <path d="M12 2a14.5 14.5 0 0 0 0 20 14.5 14.5 0 0 0 0-20" />
  <path d="M2 12h20" /></g><text x="467" y="121" font-size="18" fill="#fff" text-anchor="middle" font-weight="700" >u</text><circle cx="532" cy="470" r="15" fill="#1f2937" stroke="#fff" stroke-width="2.5"/><text x="532" y="475.5" font-size="15" fill="#fff" text-anchor="middle" font-weight="700" >2</text><circle cx="730" cy="274" r="15" fill="#1f2937" stroke="#fff" stroke-width="2.5"/><text x="730" y="279.5" font-size="15" fill="#fff" text-anchor="middle" font-weight="700" >4</text><line x1="720.0" y1="402.0" x2="1090.0" y2="170.0" stroke="#9ca3af" stroke-width="1.4" stroke-opacity="1" stroke-dasharray="3 5" stroke-linecap="round"/><line x1="720.0" y1="418.0" x2="1090.0" y2="630.0" stroke="#9ca3af" stroke-width="1.4" stroke-opacity="1" stroke-dasharray="3 5" stroke-linecap="round"/><rect x="1090" y="150" width="480" height="500" rx="18" fill="#fff" stroke="#1f2937" stroke-width="1.6"/><g transform="translate(1107.0,169.0) scale(0.917)" fill="none" stroke="#6b7280" stroke-width="2" stroke-linecap="round" stroke-linejoin="round"><circle cx="11" cy="11" r="8" />
  <line x1="21" x2="16.65" y1="21" y2="16.65" />
  <line x1="11" x2="11" y1="8" y2="14" />
  <line x1="8" x2="14" y1="11" y2="11" /></g><text x="1138" y="187" font-size="15" fill="#6b7280" text-anchor="start" font-weight="600" >update of i</text><circle cx="1130" cy="235" r="19" fill="#dbeafe" stroke="#2563eb" stroke-width="2.2"/><g transform="translate(1119.1,224.1) scale(0.910)" fill="none" stroke="#2563eb" stroke-width="2" stroke-linecap="round" stroke-linejoin="round"><circle cx="12" cy="12" r="1" />
  <path d="M20.2 20.2c2.04-2.03.02-7.36-4.5-11.9-4.54-4.52-9.87-6.54-11.9-4.5-2.04 2.03-.02 7.36 4.5 11.9 4.54 4.52 9.87 6.54 11.9 4.5Z" />
  <path d="M15.7 15.7c4.52-4.54 6.54-9.87 4.5-11.9-2.03-2.04-7.36-.02-11.9 4.5-4.52 4.54-6.54 9.87-4.5 11.9 2.03 2.04 7.36.02 11.9-4.5Z" /></g><line x1="1152" y1="235" x2="1180" y2="235" stroke="#ea580c" stroke-width="2.2" marker-end="url(#ao)"/><rect x="1190.0" y="220.0" width="30" height="30" rx="7" fill="#fff" stroke="#ea580c" stroke-width="2"/><text x="1205" y="241.6" font-size="18.6" fill="#ea580c" text-anchor="middle" font-weight="700" font-style="italic">φ</text><line x1="1223" y1="235" x2="1243" y2="235" stroke="#2563eb" stroke-width="2.2" marker-end="url(#ab)"/><rect x="1252" y="227" width="16" height="16" rx="2" fill="#bfdbfe" stroke="#fff" stroke-width="1.5"/><rect x="1268" y="227" width="16" height="16" rx="2" fill="#60a5fa" stroke="#fff" stroke-width="1.5"/><rect x="1284" y="227" width="16" height="16" rx="2" fill="#1d4ed8" stroke="#fff" stroke-width="1.5"/><path d="M1302,235 C1340,235 1345,362 1367,362" fill="none" stroke="#2563eb" stroke-width="2.2" marker-end="url(#ab)"/><circle cx="1130" cy="320" r="19" fill="#dbeafe" stroke="#2563eb" stroke-width="2.2"/><g transform="translate(1119.1,309.1) scale(0.910)" fill="none" stroke="#2563eb" stroke-width="2" stroke-linecap="round" stroke-linejoin="round"><path d="m10.5 20.5 10-10a4.95 4.95 0 1 0-7-7l-10 10a4.95 4.95 0 1 0 7 7Z" />
  <path d="m8.5 8.5 7 7" /></g><line x1="1152" y1="320" x2="1180" y2="320" stroke="#ea580c" stroke-width="2.2" marker-end="url(#ao)"/><rect x="1190.0" y="305.0" width="30" height="30" rx="7" fill="#fff" stroke="#ea580c" stroke-width="2"/><text x="1205" y="326.6" font-size="18.6" fill="#ea580c" text-anchor="middle" font-weight="700" font-style="italic">φ</text><line x1="1223" y1="320" x2="1243" y2="320" stroke="#2563eb" stroke-width="2.2" marker-end="url(#ab)"/><rect x="1252" y="312" width="16" height="16" rx="2" fill="#dbeafe" stroke="#fff" stroke-width="1.5"/><rect x="1268" y="312" width="16" height="16" rx="2" fill="#3b82f6" stroke="#fff" stroke-width="1.5"/><rect x="1284" y="312" width="16" height="16" rx="2" fill="#1e40af" stroke="#fff" stroke-width="1.5"/><path d="M1302,320 C1340,320 1345,362 1367,362" fill="none" stroke="#2563eb" stroke-width="2.2" marker-end="url(#ab)"/><circle cx="1130" cy="405" r="19" fill="#dbeafe" stroke="#2563eb" stroke-width="2.2"/><g transform="translate(1119.1,394.1) scale(0.910)" fill="none" stroke="#2563eb" stroke-width="2" stroke-linecap="round" stroke-linejoin="round"><path d="M11 20a10 10 0 0010-10 25.9 25.9 0 00-1.04-7.281 1 1 0 00-1.755-.325C15.833 5.5 13 5.5 9.8 6.1A7 7 0 0011 20" />
  <path d="M2 21a5 5 0 012.911-4.544C7.613 15.212 8.351 15.24 11 13" /></g><line x1="1152" y1="405" x2="1180" y2="405" stroke="#ea580c" stroke-width="2.2" marker-end="url(#ao)"/><rect x="1190.0" y="390.0" width="30" height="30" rx="7" fill="#fff" stroke="#ea580c" stroke-width="2"/><text x="1205" y="411.6" font-size="18.6" fill="#ea580c" text-anchor="middle" font-weight="700" font-style="italic">φ</text><line x1="1223" y1="405" x2="1243" y2="405" stroke="#2563eb" stroke-width="2.2" marker-end="url(#ab)"/><rect x="1252" y="397" width="16" height="16" rx="2" fill="#93c5fd" stroke="#fff" stroke-width="1.5"/><rect x="1268" y="397" width="16" height="16" rx="2" fill="#2563eb" stroke="#fff" stroke-width="1.5"/><rect x="1284" y="397" width="16" height="16" rx="2" fill="#bfdbfe" stroke="#fff" stroke-width="1.5"/><path d="M1302,405 C1340,405 1345,362 1367,362" fill="none" stroke="#2563eb" stroke-width="2.2" marker-end="url(#ab)"/><circle cx="1130" cy="490" r="19" fill="#dbeafe" stroke="#2563eb" stroke-width="2.2"/><g transform="translate(1119.1,479.1) scale(0.910)" fill="none" stroke="#2563eb" stroke-width="2" stroke-linecap="round" stroke-linejoin="round"><path d="M14 2v6a2 2 0 0 0 .245.96l5.51 10.08A2 2 0 0 1 18 22H6a2 2 0 0 1-1.755-2.96l5.51-10.08A2 2 0 0 0 10 8V2" />
  <path d="M6.453 15h11.094" />
  <path d="M8.5 2h7" /></g><line x1="1152" y1="490" x2="1180" y2="490" stroke="#ea580c" stroke-width="2.2" marker-end="url(#ao)"/><rect x="1190.0" y="475.0" width="30" height="30" rx="7" fill="#fff" stroke="#ea580c" stroke-width="2"/><text x="1205" y="496.6" font-size="18.6" fill="#ea580c" text-anchor="middle" font-weight="700" font-style="italic">φ</text><line x1="1223" y1="490" x2="1243" y2="490" stroke="#2563eb" stroke-width="2.2" marker-end="url(#ab)"/><rect x="1252" y="482" width="16" height="16" rx="2" fill="#60a5fa" stroke="#fff" stroke-width="1.5"/><rect x="1268" y="482" width="16" height="16" rx="2" fill="#1e3a8a" stroke="#fff" stroke-width="1.5"/><rect x="1284" y="482" width="16" height="16" rx="2" fill="#93c5fd" stroke="#fff" stroke-width="1.5"/><path d="M1302,490 C1340,490 1345,362 1367,362" fill="none" stroke="#2563eb" stroke-width="2.2" marker-end="url(#ab)"/><path d="M1110,212 L1102,212 L1102,513 L1110,513" fill="none" stroke="#6b7280" stroke-width="1.8"/><circle cx="1205" cy="598" r="20" fill="#fff" stroke="#1f2937" stroke-width="1.8"/><g transform="translate(1194.0,587.0) scale(0.917)" fill="none" stroke="#1f2937" stroke-width="2" stroke-linecap="round" stroke-linejoin="round"><path d="m18 14 4 4-4 4" />
  <path d="m18 2 4 4-4 4" />
  <path d="M2 18h1.973a4 4 0 0 0 3.3-1.7l5.454-8.6a4 4 0 0 1 3.3-1.7H22" />
  <path d="M2 6h1.972a4 4 0 0 1 3.6 2.2" />
  <path d="M22 18h-6.041a4 4 0 0 1-3.3-1.8l-.359-.45" /></g><text x="1235" y="604" font-size="14" fill="#6b7280" text-anchor="start" font-weight="600" >any order</text><text x="1218" y="545" font-size="15" fill="#ea580c" text-anchor="start" font-weight="700" font-style="italic">same φ</text><circle cx="1192" cy="539" r="15" fill="#1f2937" stroke="#fff" stroke-width="2.5"/><text x="1192" y="544.5" font-size="15" fill="#fff" text-anchor="middle" font-weight="700" >4</text><rect x="1375" y="322" width="80" height="80" rx="16" fill="#1f2937"/><g transform="translate(1398.0,345.0) scale(1.417)" fill="none" stroke="#fff" stroke-width="2.4" stroke-linecap="round" stroke-linejoin="round"><path d="M18 7V5a1 1 0 0 0-1-1H6.5a.5.5 0 0 0-.4.8l4.5 6a2 2 0 0 1 0 2.4l-4.5 6a.5.5 0 0 0 .4.8H17a1 1 0 0 0 1-1v-2" /></g><text x="1415" y="426" font-size="13" fill="#6b7280" text-anchor="middle" font-weight="400" >sum · mean · max</text><circle cx="1453" cy="322" r="15" fill="#1f2937" stroke="#fff" stroke-width="2.5"/><text x="1453" y="327.5" font-size="15" fill="#fff" text-anchor="middle" font-weight="700" >3</text><line x1="1457" y1="362" x2="1490" y2="362" stroke="#1f2937" stroke-width="2.2" marker-end="url(#ak)"/><rect x="1494" y="345" width="34" height="34" rx="8" fill="#fff" stroke="#2563eb" stroke-width="2"/><text x="1511" y="369" font-size="21" fill="#2563eb" text-anchor="middle" font-weight="700" font-style="italic">φ</text><line x1="1511" y1="381" x2="1511" y2="444" stroke="#1f2937" stroke-width="2.2" marker-end="url(#ak)"/><circle cx="1511" cy="480" r="26" fill="#2563eb" stroke="#2563eb" stroke-width="2.2"/><g transform="translate(1496.0,465.1) scale(1.246)" fill="none" stroke="#fff" stroke-width="2" stroke-linecap="round" stroke-linejoin="round"><path d="m10 16 1.5 1.5" />
  <path d="m14 8-1.5-1.5" />
  <path d="M15 2c-1.798 1.998-2.518 3.995-2.807 5.993" />
  <path d="m16.5 10.5 1 1" />
  <path d="m17 6-2.891-2.891" />
  <path d="M2 15c6.667-6 13.333 0 20-6" />
  <path d="m20 9 .891.891" />
  <path d="M3.109 14.109 4 15" />
  <path d="m6.5 12.5 1 1" />
  <path d="m7 18 2.891 2.891" />
  <path d="M9 22c1.798-1.998 2.518-3.995 2.807-5.993" /></g><text x="1511" y="530" font-size="18" fill="#2563eb" text-anchor="middle" font-weight="700" font-style="italic">i′</text><circle cx="58" cy="812" r="15" fill="#1f2937" stroke="#fff" stroke-width="2.5"/><text x="58" y="817.5" font-size="15" fill="#fff" text-anchor="middle" font-weight="700" >1</text><g transform="translate(81.0,801.0) scale(0.917)" fill="none" stroke="#1f2937" stroke-width="2" stroke-linecap="round" stroke-linejoin="round"><path d="M15.39 4.39a1 1 0 0 0 1.68-.474 2.5 2.5 0 1 1 3.014 3.015 1 1 0 0 0-.474 1.68l1.683 1.682a2.414 2.414 0 0 1 0 3.414L19.61 15.39a1 1 0 0 1-1.68-.474 2.5 2.5 0 1 0-3.014 3.015 1 1 0 0 1 .474 1.68l-1.683 1.682a2.414 2.414 0 0 1-3.414 0L8.61 19.61a1 1 0 0 0-1.68.474 2.5 2.5 0 1 1-3.014-3.015 1 1 0 0 0 .474-1.68l-1.683-1.682a2.414 2.414 0 0 1 0-3.414L4.39 8.61a1 1 0 0 1 1.68.474 2.5 2.5 0 1 0 3.014-3.015 1 1 0 0 1-.474-1.68l1.683-1.682a2.414 2.414 0 0 1 3.414 0z" /></g><text x="114" y="807" font-size="16" fill="#1f2937" text-anchor="start" font-weight="700" >Decomposability</text><text x="114" y="829" font-size="14" fill="#6b7280" text-anchor="start" font-weight="400" >entities + relations</text><circle cx="443" cy="812" r="15" fill="#1f2937" stroke="#fff" stroke-width="2.5"/><text x="443" y="817.5" font-size="15" fill="#fff" text-anchor="middle" font-weight="700" >2</text><g transform="translate(466.0,801.0) scale(0.917)" fill="none" stroke="#1f2937" stroke-width="2" stroke-linecap="round" stroke-linejoin="round"><path d="M20.341 6.484A10 10 0 0 1 10.266 21.85" />
  <path d="M3.659 17.516A10 10 0 0 1 13.74 2.152" />
  <circle cx="12" cy="12" r="3" />
  <circle cx="19" cy="5" r="2" />
  <circle cx="5" cy="19" r="2" /></g><text x="499" y="807" font-size="16" fill="#1f2937" text-anchor="start" font-weight="700" >Locality</text><text x="499" y="829" font-size="14" fill="#6b7280" text-anchor="start" font-weight="400" >neighbors only, per step</text><circle cx="828" cy="812" r="15" fill="#1f2937" stroke="#fff" stroke-width="2.5"/><text x="828" y="817.5" font-size="15" fill="#fff" text-anchor="middle" font-weight="700" >3</text><g transform="translate(851.0,801.0) scale(0.917)" fill="none" stroke="#1f2937" stroke-width="2" stroke-linecap="round" stroke-linejoin="round"><path d="m18 14 4 4-4 4" />
  <path d="m18 2 4 4-4 4" />
  <path d="M2 18h1.973a4 4 0 0 0 3.3-1.7l5.454-8.6a4 4 0 0 1 3.3-1.7H22" />
  <path d="M2 6h1.972a4 4 0 0 1 3.6 2.2" />
  <path d="M22 18h-6.041a4 4 0 0 1-3.3-1.8l-.359-.45" /></g><text x="884" y="807" font-size="16" fill="#1f2937" text-anchor="start" font-weight="700" >Permutation invariance</text><text x="884" y="829" font-size="14" fill="#6b7280" text-anchor="start" font-weight="400" >order-free aggregation</text><circle cx="1213" cy="812" r="15" fill="#1f2937" stroke="#fff" stroke-width="2.5"/><text x="1213" y="817.5" font-size="15" fill="#fff" text-anchor="middle" font-weight="700" >4</text><g transform="translate(1236.0,801.0) scale(0.917)" fill="none" stroke="#1f2937" stroke-width="2" stroke-linecap="round" stroke-linejoin="round"><path d="m17 2 4 4-4 4" />
  <path d="M3 11v-1a4 4 0 0 1 4-4h14" />
  <path d="m7 22-4-4 4-4" />
  <path d="M21 13v1a4 4 0 0 1-4 4H3" /></g><text x="1269" y="807" font-size="16" fill="#1f2937" text-anchor="start" font-weight="700" >Function reuse</text><text x="1269" y="829" font-size="14" fill="#6b7280" text-anchor="start" font-weight="400" >one φ for every edge / node</text></svg>